<?xml version="1.0" encoding="UTF-8"?>
<svg xmlns="http://www.w3.org/2000/svg" xmlns:xlink="http://www.w3.org/1999/xlink" width="25pt" height="25pt" viewBox="0 0 25 25" version="1.1">
<g id="surface1">
<path style=" stroke:none;fill-rule:nonzero;fill:rgb(0%,0%,0%);fill-opacity:1;" d="M 12.5 0 C 6.910156 0 3.570312 3.671875 3.570312 9.820312 C 3.570312 16.53125 11.535156 24.414062 11.875 24.746094 C 12.222656 25.085938 12.777344 25.085938 13.125 24.746094 C 13.464844 24.414062 21.429688 16.53125 21.429688 9.820312 C 21.429688 3.671875 18.089844 0 12.5 0 Z M 12.5 22.824219 C 10.652344 20.851562 5.355469 14.773438 5.355469 9.820312 C 5.355469 4.644531 7.894531 1.785156 12.5 1.785156 C 17.105469 1.785156 19.644531 4.644531 19.644531 9.820312 C 19.644531 14.765625 14.34375 20.851562 12.5 22.824219 Z M 12.5 22.824219 "/>
<path style=" stroke:none;fill-rule:nonzero;fill:rgb(0%,0%,0%);fill-opacity:1;" d="M 12.5 3.570312 C 10.035156 3.570312 8.035156 5.570312 8.035156 8.035156 C 8.035156 10.5 10.035156 12.5 12.5 12.5 C 14.964844 12.5 16.964844 10.5 16.964844 8.035156 C 16.960938 5.570312 14.964844 3.574219 12.5 3.570312 Z M 12.5 10.714844 C 11.019531 10.714844 9.820312 9.515625 9.820312 8.035156 C 9.820312 6.554688 11.019531 5.355469 12.5 5.355469 C 13.980469 5.355469 15.179688 6.554688 15.179688 8.035156 C 15.179688 9.515625 13.980469 10.714844 12.5 10.714844 Z M 12.5 10.714844 "/>
</g>
</svg>
