<?xml version="1.0" encoding="UTF-8"?>
<svg xmlns="http://www.w3.org/2000/svg" xmlns:xlink="http://www.w3.org/1999/xlink" width="25pt" height="25pt" viewBox="0 0 25 25" version="1.1">
<g id="surface1">
<path style=" stroke:none;fill-rule:nonzero;fill:rgb(0%,0%,0%);fill-opacity:1;" d="M 22.648438 5.589844 L 22.097656 3.933594 C 21.886719 3.304688 21.300781 2.878906 20.636719 2.878906 L 15.996094 2.878906 L 15.996094 1.371094 C 15.996094 0.613281 15.382812 0 14.628906 0 L 10.378906 0 C 9.625 0 9.011719 0.613281 9.011719 1.371094 L 9.011719 2.878906 L 4.371094 2.878906 C 3.707031 2.878906 3.121094 3.304688 2.910156 3.933594 L 2.359375 5.589844 C 2.234375 5.964844 2.296875 6.382812 2.527344 6.703125 C 2.761719 7.027344 3.136719 7.21875 3.53125 7.21875 L 4.109375 7.21875 L 5.378906 22.921875 C 5.472656 24.085938 6.464844 25 7.632812 25 L 17.632812 25 C 18.800781 25 19.792969 24.085938 19.886719 22.921875 L 21.15625 7.21875 L 21.476562 7.21875 C 21.871094 7.21875 22.246094 7.027344 22.480469 6.703125 C 22.710938 6.382812 22.777344 5.964844 22.648438 5.589844 Z M 10.476562 1.464844 L 14.53125 1.464844 L 14.53125 2.878906 L 10.476562 2.878906 Z M 18.425781 22.804688 C 18.390625 23.214844 18.046875 23.535156 17.632812 23.535156 L 7.632812 23.535156 C 7.222656 23.535156 6.875 23.214844 6.839844 22.804688 L 5.578125 7.21875 L 19.6875 7.21875 Z M 3.847656 5.753906 L 4.300781 4.398438 C 4.308594 4.367188 4.339844 4.34375 4.371094 4.34375 L 20.636719 4.34375 C 20.667969 4.34375 20.699219 4.367188 20.707031 4.398438 L 21.160156 5.753906 Z M 3.847656 5.753906 "/>
<path style=" stroke:none;fill-rule:nonzero;fill:rgb(0%,0%,0%);fill-opacity:1;" d="M 16.089844 22.75 C 16.101562 22.753906 16.117188 22.753906 16.128906 22.753906 C 16.515625 22.753906 16.839844 22.449219 16.859375 22.058594 L 17.546875 8.855469 C 17.566406 8.453125 17.257812 8.105469 16.855469 8.085938 C 16.449219 8.0625 16.105469 8.375 16.082031 8.777344 L 15.394531 21.980469 C 15.375 22.386719 15.6875 22.730469 16.089844 22.75 Z M 16.089844 22.75 "/>
<path style=" stroke:none;fill-rule:nonzero;fill:rgb(0%,0%,0%);fill-opacity:1;" d="M 8.183594 22.058594 C 8.203125 22.449219 8.527344 22.753906 8.914062 22.753906 C 8.925781 22.753906 8.941406 22.753906 8.953125 22.75 C 9.355469 22.730469 9.667969 22.382812 9.644531 21.980469 L 8.925781 8.777344 C 8.902344 8.375 8.558594 8.0625 8.152344 8.085938 C 7.75 8.109375 7.441406 8.453125 7.460938 8.855469 Z M 8.183594 22.058594 "/>
<path style=" stroke:none;fill-rule:nonzero;fill:rgb(0%,0%,0%);fill-opacity:1;" d="M 12.511719 22.753906 C 12.917969 22.753906 13.246094 22.425781 13.246094 22.019531 L 13.246094 8.816406 C 13.246094 8.414062 12.917969 8.085938 12.511719 8.085938 C 12.109375 8.085938 11.78125 8.414062 11.78125 8.816406 L 11.78125 22.019531 C 11.78125 22.425781 12.109375 22.753906 12.511719 22.753906 Z M 12.511719 22.753906 "/>
</g>
</svg>
